<svg aria-hidden="true" style="position: absolute; width: 0; height: 0; overflow: hidden;" version="1.1" xmlns="http://www.w3.org/2000/svg" xmlns:xlink="http://www.w3.org/1999/xlink">
<defs>
<symbol id="icon-arrow" viewBox="0 0 16 16">
<path fill="#fff" style="fill: var(--color1, #fff)" d="M12.999 6.329c0-0.154-0.054-0.304-0.153-0.423-0.056-0.067-0.124-0.122-0.202-0.163s-0.162-0.066-0.249-0.074c-0.087-0.008-0.175 0.001-0.258 0.027s-0.161 0.068-0.228 0.123l-3.565 2.962-3.572-2.856c-0.068-0.055-0.146-0.096-0.23-0.121s-0.172-0.033-0.259-0.024c-0.087 0.009-0.172 0.035-0.249 0.077s-0.145 0.098-0.2 0.166c-0.061 0.068-0.106 0.149-0.134 0.235s-0.038 0.178-0.028 0.269c0.009 0.091 0.037 0.178 0.083 0.258s0.106 0.149 0.179 0.203l3.991 3.193c0.119 0.097 0.268 0.15 0.422 0.15s0.303-0.053 0.422-0.15l3.991-3.305c0.081-0.066 0.144-0.151 0.186-0.246s0.060-0.199 0.054-0.303z"></path>
</symbol>
<symbol id="icon-location" viewBox="0 0 16 16">
<path fill="#f59e0b" style="fill: var(--color2, #f59e0b)" d="M8 0.667c1.591 0 3.117 0.662 4.243 1.841s1.757 2.778 1.757 4.445c0 3.004-1.935 5.768-5.732 8.299-0.080 0.053-0.173 0.082-0.268 0.082s-0.188-0.028-0.268-0.082c-3.797-2.531-5.732-5.296-5.732-8.299 0-1.667 0.632-3.266 1.757-4.445s2.651-1.841 4.243-1.841zM8 4.857c-0.53 0-1.039 0.221-1.414 0.614s-0.586 0.926-0.586 1.482c0 0.556 0.211 1.089 0.586 1.482s0.884 0.614 1.414 0.614c0.53 0 1.039-0.221 1.414-0.614s0.586-0.926 0.586-1.482c0-0.556-0.211-1.089-0.586-1.482s-0.884-0.614-1.414-0.614z"></path>
</symbol>
<symbol id="icon-apartment" viewBox="0 0 16 16">
<path d="M11.333 7.333v-4c0-0.733-0.6-1.333-1.333-1.333h-4c-0.733 0-1.333 0.6-1.333 1.333v1.333h-1.333c-0.733 0-1.333 0.6-1.333 1.333v6.667c0 0.733 0.6 1.333 1.333 1.333h4v-2.667h1.333v2.667h4c0.733 0 1.333-0.6 1.333-1.333v-4c0-0.733-0.6-1.333-1.333-1.333h-1.333zM4.667 12.667h-1.333v-1.333h1.333v1.333zM4.667 10h-1.333v-1.333h1.333v1.333zM4.667 7.333h-1.333v-1.333h1.333v1.333zM7.333 10h-1.333v-1.333h1.333v1.333zM7.333 7.333h-1.333v-1.333h1.333v1.333zM7.333 4.667h-1.333v-1.333h1.333v1.333zM10 10h-1.333v-1.333h1.333v1.333zM10 7.333h-1.333v-1.333h1.333v1.333zM10 4.667h-1.333v-1.333h1.333v1.333zM12.667 12.667h-1.333v-1.333h1.333v1.333zM12.667 10h-1.333v-1.333h1.333v1.333z"></path>
</symbol>
<symbol id="icon-villa" viewBox="0 0 16 16">
<path  d="M4.667 14h-2c-0.367 0-0.667-0.3-0.667-0.667v-7.54c0-0.28 0.167-0.527 0.427-0.627l7.333-2.82c0.101-0.039 0.211-0.053 0.319-0.040s0.211 0.052 0.3 0.114 0.162 0.144 0.212 0.241c0.050 0.096 0.076 0.204 0.075 0.312v3.693h-5.333c-0.367 0-0.667 0.3-0.667 0.667v6.667zM11.333 8h-4.667c-0.367 0-0.667 0.3-0.667 0.667v4.667c0 0.367 0.3 0.667 0.667 0.667h2.667v-2.667c0-0.367 0.3-0.667 0.667-0.667s0.667 0.3 0.667 0.667v2.667h2.667c0.367 0 0.667-0.3 0.667-0.667v-5.333c0-0.733-0.6-1.333-1.333-1.333s-1.333 0.6-1.333 1.333z"></path>
</symbol>
<symbol id="icon-house" viewBox="0 0 16 16">
<path   d="M14 7.221v5.779c-0 0.181-0.049 0.359-0.142 0.515s-0.226 0.283-0.386 0.369c-0.145 0.078-0.307 0.118-0.471 0.116h-3.004c-0.133 0-0.26-0.053-0.354-0.146s-0.146-0.221-0.146-0.354v-3c0-0.133-0.053-0.26-0.146-0.354s-0.221-0.146-0.354-0.146h-2c-0.133 0-0.26 0.053-0.354 0.146s-0.146 0.221-0.146 0.354v3c0 0.133-0.053 0.26-0.146 0.354s-0.221 0.146-0.354 0.146h-2.998c-0.142 0-0.282-0.030-0.411-0.088s-0.245-0.143-0.338-0.25c-0.164-0.19-0.254-0.434-0.251-0.685v-5.756c0-0.139 0.029-0.277 0.086-0.405s0.139-0.242 0.242-0.335l5-4.546c0.184-0.168 0.424-0.262 0.673-0.262s0.489 0.093 0.673 0.261l5 4.546c0.103 0.094 0.185 0.208 0.242 0.336s0.085 0.265 0.086 0.404z"></path>
</symbol>
<symbol id="icon-arrow-right" viewBox="0 0 16 16">
<path  d="M6.662 3.335c-0.154-0-0.304 0.054-0.423 0.153-0.067 0.056-0.122 0.124-0.163 0.202s-0.066 0.162-0.074 0.249c-0.008 0.087 0.001 0.175 0.027 0.259s0.068 0.161 0.123 0.228l2.962 3.565-2.856 3.572c-0.055 0.068-0.096 0.146-0.121 0.23s-0.033 0.172-0.024 0.259c0.009 0.087 0.035 0.172 0.077 0.249s0.098 0.145 0.166 0.2c0.068 0.061 0.149 0.106 0.235 0.134s0.178 0.037 0.269 0.028c0.091-0.009 0.178-0.038 0.258-0.083s0.149-0.106 0.203-0.18l3.193-3.991c0.097-0.119 0.15-0.268 0.15-0.422s-0.053-0.303-0.15-0.422l-3.305-3.991c-0.066-0.080-0.151-0.144-0.246-0.186s-0.199-0.060-0.303-0.054z"></path>
</symbol>
<symbol id="icon-arrow-left" viewBox="0 0 16 16">
<path  d="M10.004 12.665c0.154 0 0.304-0.054 0.423-0.153 0.067-0.056 0.122-0.124 0.163-0.202s0.066-0.162 0.074-0.249c0.008-0.087-0.001-0.175-0.027-0.259s-0.068-0.161-0.123-0.228l-2.962-3.565 2.856-3.572c0.055-0.068 0.096-0.146 0.121-0.23s0.033-0.172 0.024-0.259c-0.009-0.087-0.035-0.172-0.077-0.249s-0.098-0.145-0.166-0.2c-0.068-0.061-0.148-0.106-0.235-0.134s-0.178-0.038-0.269-0.028-0.178 0.037-0.258 0.083c-0.079 0.045-0.149 0.106-0.203 0.179l-3.193 3.991c-0.097 0.119-0.15 0.268-0.15 0.422s0.053 0.303 0.15 0.422l3.305 3.991c0.066 0.081 0.151 0.144 0.246 0.186s0.199 0.060 0.303 0.054z"></path>
</symbol>
<symbol id="icon-fire" viewBox="0 0 16 16">
<path   d="M13.033 7.331c-0.303-0.683-0.744-1.296-1.295-1.8l-0.455-0.417c-0.015-0.014-0.034-0.024-0.054-0.028s-0.041-0.005-0.061 0c-0.020 0.005-0.039 0.015-0.054 0.029s-0.027 0.031-0.034 0.051l-0.203 0.583c-0.127 0.366-0.359 0.739-0.689 1.106-0.022 0.023-0.047 0.030-0.064 0.031s-0.044-0.002-0.067-0.023c-0.022-0.019-0.033-0.047-0.031-0.075 0.058-0.941-0.223-2.002-0.839-3.156-0.509-0.959-1.217-1.708-2.102-2.23l-0.645-0.38c-0.084-0.050-0.192 0.016-0.188 0.114l0.034 0.75c0.023 0.513-0.036 0.966-0.177 1.342-0.172 0.461-0.419 0.889-0.734 1.273-0.22 0.267-0.469 0.509-0.742 0.72-0.659 0.507-1.195 1.156-1.567 1.898-0.372 0.749-0.565 1.574-0.566 2.411 0 0.738 0.145 1.452 0.433 2.125 0.278 0.648 0.678 1.237 1.18 1.733 0.506 0.5 1.094 0.894 1.748 1.167 0.678 0.284 1.397 0.428 2.139 0.428s1.461-0.144 2.139-0.427c0.653-0.272 1.247-0.668 1.748-1.167 0.506-0.5 0.903-1.084 1.18-1.733 0.287-0.672 0.434-1.395 0.433-2.125 0-0.762-0.156-1.503-0.467-2.202z"></path>
</symbol>
<symbol id="icon-wallet" viewBox="0 0 16 16">
<path  d="M12.8 4.8h-10v-0.4l8.8-0.704v0.704h1.2v-1.2c0-0.88-0.713-1.498-1.583-1.374l-8.033 1.147c-0.871 0.125-1.584 0.946-1.584 1.826v8c0 0.424 0.169 0.831 0.469 1.131s0.707 0.469 1.131 0.469h9.6c0.424 0 0.831-0.169 1.131-0.469s0.469-0.707 0.469-1.131v-6.4c0-0.424-0.169-0.831-0.469-1.131s-0.707-0.469-1.131-0.469zM11.6 10.405c-0.158-0-0.314-0.031-0.459-0.091s-0.278-0.149-0.389-0.26-0.2-0.244-0.26-0.39c-0.060-0.146-0.091-0.302-0.091-0.459s0.031-0.314 0.091-0.459 0.149-0.278 0.26-0.389c0.112-0.111 0.244-0.2 0.39-0.26s0.302-0.091 0.459-0.091c0.318 0 0.624 0.127 0.849 0.352s0.351 0.531 0.351 0.849-0.127 0.624-0.352 0.849c-0.225 0.225-0.531 0.351-0.849 0.351z"></path>
</symbol>
<symbol id="icon-villa" viewBox="0 0 16 16">
<path  d="M4.667 14h-2c-0.367 0-0.667-0.3-0.667-0.667v-7.54c0-0.28 0.167-0.527 0.427-0.627l7.333-2.82c0.101-0.039 0.211-0.053 0.319-0.040s0.211 0.052 0.3 0.114 0.162 0.144 0.212 0.241c0.050 0.096 0.076 0.204 0.075 0.312v3.693h-5.333c-0.367 0-0.667 0.3-0.667 0.667v6.667zM11.333 8h-4.667c-0.367 0-0.667 0.3-0.667 0.667v4.667c0 0.367 0.3 0.667 0.667 0.667h2.667v-2.667c0-0.367 0.3-0.667 0.667-0.667s0.667 0.3 0.667 0.667v2.667h2.667c0.367 0 0.667-0.3 0.667-0.667v-5.333c0-0.733-0.6-1.333-1.333-1.333s-1.333 0.6-1.333 1.333z"></path>
</symbol>
<symbol id="icon-instagram" viewBox="0 0 16 16">
<path fill="#3c4563" style="fill: var(--color1, #3c4563)" d="M7.999 6.333c-0.918 0-1.667 0.749-1.667 1.667s0.749 1.667 1.667 1.667c0.918 0 1.667-0.749 1.667-1.667s-0.749-1.667-1.667-1.667zM12.999 8c0-0.69 0.006-1.375-0.033-2.064-0.039-0.801-0.221-1.511-0.807-2.096-0.587-0.587-1.296-0.768-2.096-0.807-0.69-0.039-1.375-0.033-2.064-0.033-0.69 0-1.375-0.006-2.064 0.033-0.801 0.039-1.511 0.221-2.096 0.807-0.587 0.587-0.768 1.296-0.807 2.096-0.039 0.69-0.033 1.375-0.033 2.064s-0.006 1.375 0.033 2.064c0.039 0.801 0.221 1.511 0.807 2.096 0.587 0.587 1.296 0.768 2.096 0.807 0.69 0.039 1.375 0.033 2.064 0.033 0.69 0 1.375 0.006 2.064-0.033 0.801-0.039 1.511-0.221 2.096-0.807 0.587-0.587 0.768-1.296 0.807-2.096 0.040-0.689 0.033-1.373 0.033-2.064zM7.999 10.566c-1.42 0-2.565-1.146-2.565-2.566s1.146-2.566 2.565-2.566c1.42 0 2.565 1.146 2.565 2.566s-1.146 2.566-2.565 2.566zM10.669 5.929c-0.331 0-0.599-0.268-0.599-0.599s0.268-0.599 0.599-0.599c0.332 0 0.599 0.268 0.599 0.599 0 0.079-0.015 0.157-0.045 0.229s-0.074 0.139-0.13 0.194-0.122 0.1-0.194 0.13c-0.073 0.030-0.151 0.045-0.229 0.045z"></path>
</symbol>
<symbol id="icon-facebook" viewBox="0 0 16 16">
<path fill="#3c4563" style="fill: var(--color1, #3c4563)" d="M6.159 13v-4.692h-1.659v-1.689h1.659v-1.443c0-1.134 0.98-2.175 3.239-2.175 0.914 0 1.591 0.066 1.591 0.066l-0.053 1.578c0 0-0.69-0.005-1.442-0.005-0.814 0-0.945 0.281-0.945 0.746v1.234h2.452l-0.107 1.689h-2.345v4.692h-2.389z"></path>
</symbol>
<symbol id="icon-twitter" viewBox="0 0 16 16">
<path fill="#3c4563" style="fill: var(--color1, #3c4563)" d="M14 4.188c-0.441 0.195-0.921 0.336-1.416 0.391 0.514-0.313 0.898-0.807 1.082-1.391-0.482 0.294-1.010 0.5-1.56 0.609-0.23-0.252-0.508-0.453-0.818-0.591s-0.643-0.208-0.979-0.207c-1.363 0-2.459 1.133-2.459 2.524 0 0.195 0.023 0.391 0.061 0.578-2.041-0.109-3.861-1.109-5.071-2.641-0.22 0.386-0.336 0.826-0.335 1.274 0 0.876 0.434 1.648 1.096 2.102-0.39-0.016-0.771-0.126-1.112-0.321v0.031c0 1.226 0.845 2.243 1.971 2.476-0.211 0.056-0.429 0.085-0.648 0.086-0.16 0-0.312-0.016-0.464-0.038 0.312 1 1.219 1.726 2.299 1.75-0.845 0.679-1.904 1.078-3.053 1.078-0.206 0-0.397-0.007-0.594-0.031 1.090 0.717 2.384 1.132 3.777 1.132 4.523 0 6.997-3.843 6.997-7.179 0-0.109 0-0.219-0.007-0.328 0.479-0.359 0.898-0.805 1.233-1.305z"></path>
</symbol>
</defs>
</svg>
